<svg id="Logo" xmlns="http://www.w3.org/2000/svg" viewBox="0 0 466 100"><defs><style>.cls-1{fill:#00802f;}</style></defs><path d="M220.86,72.86a6.51,6.51,0,0,1,4.32,1.93l-2.08,3.38a6,6,0,0,0-3.25-1.58c-2.68,0-4.8,2.69-4.8,6.07V93h-3.91V73.25h3.91v4.53h.09c2-3.47,3.87-4.92,5.72-4.92m-85-9.86h-4.31V80.47c0,2.81-.35,5-1.89,6.55a9.84,9.84,0,0,1-7,2.42,8.78,8.78,0,0,1-6.47-2.55c-1.36-1.37-1.8-2.77-1.8-6.16V63H110V81.65c0,8.18,6.16,11.75,12.49,11.75,8.93,0,13.33-4.84,13.33-12.19Zm8.58,10.25h-3.92V93h3.92V78.84c1.84-2.07,3.21-2.86,4.92-2.86,2.38,0,3.87,1.89,3.87,4.79V93h3.92V80.82c0-5.41-3-8-6.73-8a7.64,7.64,0,0,0-5.9,3h-.08Zm19.79-3.65a2.33,2.33,0,1,0-2.33-2.33,2.34,2.34,0,0,0,2.33,2.33m1.94,3.65h-3.92V93h3.92Zm17.54,0-5.18,12.14-5.33-12.14H168.9l8.93,20.15h1.31l8.71-20.15Zm22.52,17.82a12.85,12.85,0,0,1-7.87,2.33c-6.16,0-9.59-5.06-9.59-10.51,0-6,3.79-10,9.24-10,5.23,0,8.58,3.56,8.58,10.86h-13.9c.61,3.92,2.86,5.94,6.64,5.94a12.52,12.52,0,0,0,6.9-2.38Zm-3.51-9.95c-.14-3-1.85-4.88-4.62-4.88-3,0-4.8,1.76-5.32,4.88Zm36-6.64a12.26,12.26,0,0,0-5.81-1.62c-4,0-6.51,2-6.51,5.36,0,5.33,9.24,6.77,9.24,9.5,0,1.41-1.32,2.16-2.91,2.25s-3.91-.84-6.46-2.6V91.6a13.79,13.79,0,0,0,6.86,1.8c3.74,0,6.51-2.33,6.51-5.81,0-2-1.19-3.39-4.44-5.54-3.48-2-4.8-3.08-4.8-4,0-1.06,1-1.8,2.6-1.8a11.07,11.07,0,0,1,5.72,2.06ZM246,69.6a2.33,2.33,0,1,0-2.33-2.33A2.34,2.34,0,0,0,246,69.6m1.93,3.65H244V93h3.91Zm10.65-4.09-7.35,7.17v.44h3.43V87.19c0,3.57,2.16,6.21,6.42,6.21a11.67,11.67,0,0,0,4.75-1.32V88.42a8.41,8.41,0,0,1-4.44,1.46,2.72,2.72,0,0,1-2.81-3V76.77h6.25V73.25h-6.25Zm26.48,22.7c-1.81,1.19-2.56,1.54-3.79,1.54-1.71,0-2.64-.62-3-2a8.44,8.44,0,0,1-5.32,2,4.77,4.77,0,0,1-4.84-4.84c0-3.91,3.57-5.1,6.73-6.25l3.48-1.23V80c0-2.46-1.19-3.47-3.56-3.47a8.18,8.18,0,0,0-6.25,3.25V75.54a8.06,8.06,0,0,1,6.55-2.68c4,0,7.17,2,7.17,6.51V89.53c0,.74.26,1,.75,1a4.7,4.7,0,0,0,2.07-1.06Zm-5.46-26.48a2,2,0,0,1,2,2,2,2,0,0,1-2,2.07,2.07,2.07,0,0,1-2.07-2.07,2,2,0,0,1,2.07-2m-8.18,0a2,2,0,0,1,2,2,2,2,0,0,1-2,2.07,2.07,2.07,0,0,1-2.07-2.07,2,2,0,0,1,2.07-2m6.91,17.86c-3.35,1.14-6.25,2.28-6.25,4.61a2.69,2.69,0,0,0,2.82,2.77A5,5,0,0,0,278.32,89Zm14.56-14.08-7.35,7.17v.44H289V87.19c0,3.57,2.16,6.21,6.42,6.21a11.67,11.67,0,0,0,4.75-1.32V88.42a8.41,8.41,0,0,1-4.44,1.46,2.72,2.72,0,0,1-2.81-3V76.77h6.24V73.25h-6.24Zm36.74-4.44a12,12,0,0,0-6.69-2.11c-5.5,0-9.11,3.12-9.11,8,0,8.23,13,8.93,13,15.14,0,1.67-1.54,3.78-4.88,3.78-2.95,0-5.72-1.54-7.92-4.36v5.45a13.2,13.2,0,0,0,8.4,2.78,8,8,0,0,0,8.4-8.14c0-9.55-13-9.46-13-15.22,0-2.11,2-3.56,4.75-3.56a10.08,10.08,0,0,1,7,3.12Zm9.94,4.44-7.35,7.17v.44h3.43V87.19c0,3.57,2.16,6.21,6.43,6.21a11.75,11.75,0,0,0,4.75-1.32V88.42a8.47,8.47,0,0,1-4.45,1.46,2.72,2.72,0,0,1-2.81-3V76.77h6.24V73.25h-6.24Zm14.95,21.6a2.64,2.64,0,1,0-2.64,2.64,2.65,2.65,0,0,0,2.64-2.64m31.8-12.54H376.24v3.87H382v6.16a21.1,21.1,0,0,1-6.51,1.19c-7.12,0-12.14-4.71-12.14-11.4a11.34,11.34,0,0,1,11.57-11.47,22.41,22.41,0,0,1,10.78,2.94V65.16c-4.71-2-7.17-2.55-10.69-2.55-9.15,0-16.1,6.73-16.1,15.57s6.77,15.22,16,15.22a26.25,26.25,0,0,0,11.43-2.47Zm21.25,13.64c-1.81,1.19-2.55,1.54-3.78,1.54-1.72,0-2.64-.62-3-2a8.44,8.44,0,0,1-5.32,2,4.76,4.76,0,0,1-4.83-4.84c0-3.91,3.56-5.1,6.72-6.25l3.48-1.23V80c0-2.46-1.19-3.47-3.56-3.47A8.18,8.18,0,0,0,391,79.8V75.54a8.07,8.07,0,0,1,6.55-2.68c4,0,7.17,2,7.17,6.51V89.53c0,.74.27,1,.75,1a4.7,4.7,0,0,0,2.07-1.06Zm-6.73-8.62c-3.35,1.14-6.25,2.28-6.25,4.61a2.69,2.69,0,0,0,2.82,2.77A5,5,0,0,0,400.83,89ZM410.68,93h3.92V63h-3.92Zm9.19,0h3.92V63h-3.92ZM445,91.07a12.85,12.85,0,0,1-7.87,2.33c-6.16,0-9.59-5.06-9.59-10.51,0-6,3.78-10,9.24-10,5.23,0,8.58,3.56,8.58,10.86h-13.9c.61,3.92,2.85,5.94,6.64,5.94a12.55,12.55,0,0,0,6.9-2.38Zm-3.51-9.95c-.14-3-1.85-4.88-4.63-4.88-3,0-4.79,1.76-5.32,4.88Zm11.77-7.87h-3.92V93h3.92V78.84c1.85-2.07,3.21-2.86,4.93-2.86,2.37,0,3.87,1.89,3.87,4.79V93H466V80.82c0-5.41-3-8-6.73-8a7.61,7.61,0,0,0-5.89,3h-.09Z"/><path class="cls-1" d="M90,70,54.6,57.12a4,4,0,0,1-2.49-2.71l-.6-2.19a4,4,0,0,1,3.17-5L90,41ZM41,56.63,38.6,54a4,4,0,0,0-5-.79L8.1,67.94l4.46,25.28,10,.88L41.46,61.3A4,4,0,0,0,41,56.63ZM35.91,27.5a4,4,0,0,0-3.41-2.66L0,22,7.05,62,39.59,43.18a2,2,0,0,0,.88-2.37,1.93,1.93,0,0,0-1.18-1.19,6.5,6.5,0,0,1-3.63-9,4.16,4.16,0,0,0,.25-3.15M90,0,41.73,22.51a2.13,2.13,0,0,0-1.08,2.72l.2.53a2.21,2.21,0,0,0,1.74,1.33,6.5,6.5,0,0,1,3.89,10.58,1.64,1.64,0,0,0-.27,1.62,1.6,1.6,0,0,0,2,.91L90,25ZM56.12,65.28a8,8,0,0,0-11.53,2.57L29.18,94.68,90,100V89Z"/></svg>